<?xml version="1.0" encoding="UTF-8" standalone="no"?>
<!-- Created with Inkscape (http://www.inkscape.org/) -->

<svg
   width="985.25012"
   height="411.45831"
   viewBox="0 0 260.68076 108.86501"
   version="1.1"
   id="svg1"
   inkscape:version="1.4.2 (f4327f4, 2025-05-13)"
   sodipodi:docname="foursteps.svg"
   xmlns:inkscape="http://www.inkscape.org/namespaces/inkscape"
   xmlns:sodipodi="http://sodipodi.sourceforge.net/DTD/sodipodi-0.dtd"
   xmlns="http://www.w3.org/2000/svg"
   xmlns:svg="http://www.w3.org/2000/svg">
  <sodipodi:namedview
     id="namedview1"
     pagecolor="#ffffff"
     bordercolor="#666666"
     borderopacity="1.0"
     inkscape:showpageshadow="2"
     inkscape:pageopacity="0.0"
     inkscape:pagecheckerboard="0"
     inkscape:deskcolor="#d1d1d1"
     inkscape:document-units="px"
     inkscape:zoom="0.68862935"
     inkscape:cx="389.17888"
     inkscape:cy="477.03456"
     inkscape:window-width="1920"
     inkscape:window-height="991"
     inkscape:window-x="-9"
     inkscape:window-y="-9"
     inkscape:window-maximized="1"
     inkscape:current-layer="layer1" />
  <defs
     id="defs1">
    <clipPath
       id="clip0">
      <rect
         x="74"
         y="72"
         width="1159"
         height="484"
         id="rect1" />
    </clipPath>
  </defs>
  <g
     inkscape:label="Layer 1"
     inkscape:groupmode="layer"
     id="layer1"
     transform="translate(-2.0088855,-0.84929112)">
    <g
       clip-path="url(#clip0)"
       transform="matrix(0.22492771,0,0,0.22492771,-14.635765,-15.345504)"
       id="g49">
      <path
         d="M 0,115 V 74.4763 C 0,33.3442 33.3441,0 74.4761,0 H 308.829 c 41.132,0 74.476,33.3442 74.476,74.4763 v 0 H 399 L 370.25,115 341.5,74.4763 h 15.695 v 0 c 0,-26.7122 -21.654,-48.3667 -48.366,-48.3667 H 74.4761 c -26.7121,0 -48.3666,21.6545 -48.3666,48.3667 V 115 Z"
         fill="#156082"
         fill-rule="evenodd"
         transform="matrix(-1,0,0,1,819,72)"
         id="path1" />
      <path
         d="m 557,353.75 h 70.5 V 341 L 653,366.5 627.5,392 V 379.25 H 557 Z"
         fill="#156082"
         fill-rule="evenodd"
         id="path2" />
      <path
         d="m 926,353.75 h 67.5 V 341 L 1019,366.5 993.5,392 V 379.25 H 926 Z"
         fill="#156082"
         fill-rule="evenodd"
         id="path3" />
      <path
         d="m 830.013,263 c -18.225,-0.006 -33.006,14.986 -33.013,33.488 -0.006,18.501 14.763,33.506 32.988,33.512 18.225,0.007 33.006,-14.985 33.012,-33.487 0,-0.007 0,-0.015 0,-0.023 -0.005,-18.493 -14.77,-33.483 -32.987,-33.49 z m 2.506,17.325 c 7.834,1.257 13.602,8.114 13.601,16.165 -0.013,9.027 -7.215,16.343 -16.107,16.364 -8.903,0.006 -16.125,-7.317 -16.13,-16.355 -0.006,-9.038 7.207,-16.368 16.11,-16.374 0.846,-0.002 1.69,0.066 2.526,0.2 z"
         fill="#156082"
         fill-rule="evenodd"
         id="path4" />
      <path
         d="m 772.001,260 c -7.179,0 -13,5.82 -13.001,12.999 -10e-4,7.18 5.818,13.001 12.999,13.001 7.179,10e-4 13,-5.819 13.001,-12.998 0,-0.004 0,-0.011 0,-0.015 0.006,-7.166 -5.798,-12.981 -12.965,-12.987 -0.011,0 -0.022,0 -0.034,0 z"
         fill="#156082"
         fill-rule="evenodd"
         id="path5" />
      <path
         d="M 804.22,209 C 719.414,209 673.105,300.644 679.603,442.878 683.052,518.373 721.508,556 767.517,556 881.498,556 852.663,439.714 864.668,394.267 874.942,355.344 902,339.581 902,291.454 902,238.768 852.638,209 804.22,209 Z m -0.012,21.22 c 20.185,0 39.936,6.232 54.227,17.109 14.861,11.386 22.437,26.143 22.437,44.125 0,23.415 -7.552,36.68 -17.112,53.462 -6.958,12.017 -14.776,25.793 -19.568,43.933 v 0.047 c -3.328,12.623 -4.005,28.157 -4.707,44.612 -1.053,24.421 -2.24,52.14 -12.2,71.856 -4.132,8.631 -10.759,15.817 -19.02,20.625 -10.129,5.832 -23.842,8.803 -40.76,8.803 -17.244,0 -32.358,-7.154 -43.697,-20.686 -13.674,-16.309 -21.65,-41.226 -23.066,-72.195 -2.008,-43.859 1.139,-82.65 9.332,-115.268 7.744,-30.799 19.627,-54.784 35.346,-71.263 15.913,-16.697 35.699,-25.16 58.788,-25.16 z"
         fill="#00a6d6"
         fill-rule="evenodd"
         id="path6" />
      <path
         d="m 1054.5,367 36.75,-73.5 h 97.5 l 36.75,73.5 -36.75,73.5 h -97.5 z"
         stroke="#00a6d6"
         stroke-width="13.3333"
         stroke-miterlimit="8"
         fill="none"
         fill-rule="evenodd"
         id="path7" />
      <g
         id="g10">
        <g
           id="g9">
          <g
             id="g8">
            <path
               d="m 1166.54,387.513 0.61,-0.726 c 0.91,-1.061 1.74,-2.209 2.45,-3.357 l 0.01,0.015 0.34,-0.596 0.33,-0.567 c 0.76,-1.336 1.41,-2.717 1.91,-4.141 l 0.21,-0.624 c 0.51,-1.468 0.91,-2.993 1.18,-4.635 l 0.07,0.072 0.24,-2.12 c 0.19,-1.846 0.26,-3.778 0.2,-5.754 l -0.01,-0.421 c -0.14,-4.722 -0.91,-9.561 -1.59,-13.847 -0.01,-0.043 -0.01,-0.073 -0.01,-0.13 0.96,0.203 2.02,-0.073 2.77,-0.829 1.21,-1.206 1.19,-3.168 0,-4.358 l -4.07,-4.069 c -0.23,-2.266 -0.32,-4.242 -0.24,-6.058 l 7.22,7.22 c 1.19,1.192 3.15,1.206 4.36,0 1.2,-1.206 1.19,-3.167 0,-4.358 l -10.42,-10.418 c 0.41,-1.423 0.99,-2.819 1.7,-4.112 l 11.62,11.624 c 1.19,1.191 3.16,1.206 4.36,0 1.21,-1.206 1.19,-3.167 0,-4.359 l -12.33,-12.335 c 0.21,-0.247 0.46,-0.494 0.71,-0.741 1.2,-1.206 1.19,-3.168 0,-4.359 -1.21,-1.206 -3.15,-1.206 -4.36,0 -0.52,0.523 -1,1.032 -1.42,1.54 -0.99,1.076 -1.85,2.194 -2.65,3.429 l -0.22,0.334 -0.23,0.349 0.02,0.015 c -0.79,1.22 -1.46,2.498 -2.02,3.792 l -0.03,-0.029 -0.57,1.496 c -0.54,1.439 -0.96,2.964 -1.29,4.722 l -0.11,0.537 c -0.29,1.657 -0.44,3.415 -0.52,5.289 l 0.02,2.514 c 0.03,1.918 0.17,4.01 0.46,6.364 l 0.03,0.348 0.01,0.015 c 0.33,2.644 0.76,5.346 1.1,7.54 0.36,2.224 0.68,4.2 0.93,6.103 l -3.68,-3.676 c -1.21,-1.206 -3.15,-1.206 -4.36,0 -1.21,1.206 -1.21,3.153 0,4.359 l 8.64,8.645 c -0.02,1.859 -0.2,3.603 -0.55,5.259 l -11,-10.998 c -1.2,-1.207 -3.15,-1.207 -4.35,0 -1.21,1.206 -1.21,3.152 0,4.358 l 13.06,13.062 c -0.64,1.221 -1.43,2.412 -2.3,3.516 l -13.67,-13.672 c -1.21,-1.206 -3.15,-1.206 -4.36,0 -1.21,1.206 -1.21,3.153 0,4.359 l 13.67,13.672 c -1.12,0.886 -2.29,1.656 -3.51,2.296 l -13.07,-13.062 c -1.2,-1.206 -3.15,-1.206 -4.35,0 -1.21,1.205 -1.21,3.153 0,4.359 l 11,10.998 c -1.66,0.349 -3.4,0.523 -5.26,0.552 l -8.65,-8.645 c -1.21,-1.205 -3.15,-1.205 -4.36,0 -1.2,1.206 -1.2,3.154 0,4.359 l 3.69,3.691 c -1.9,-0.247 -3.91,-0.567 -6.13,-0.93 -2.29,-0.378 -4.9,-0.8 -7.53,-1.105 l -0.01,-0.014 -0.35,-0.029 c -2.35,-0.291 -4.44,-0.436 -6.36,-0.465 l -2.52,-0.015 c -1.87,0.073 -3.63,0.233 -5.28,0.523 l -0.54,0.102 c -1.75,0.319 -3.29,0.756 -4.72,1.294 l -1.5,0.566 0.03,0.029 c -1.31,0.552 -2.57,1.235 -3.79,2.019 l -0.02,-0.014 -0.35,0.233 -0.33,0.217 c -1.24,0.799 -2.35,1.657 -3.43,2.645 -0.54,0.45 -1.03,0.915 -1.54,1.424 -1.21,1.206 -1.21,3.152 0,4.358 1.19,1.192 3.15,1.206 4.36,0 0.25,-0.247 0.49,-0.493 0.74,-0.711 l 12.34,12.335 c 1.19,1.191 3.15,1.206 4.35,0 1.21,-1.206 1.19,-3.167 0,-4.359 L 1099.7,397.8 c 1.29,-0.712 2.69,-1.294 4.11,-1.7 l 10.42,10.417 c 1.19,1.192 3.15,1.206 4.36,0 1.2,-1.206 1.19,-3.167 0,-4.359 l -7.22,-7.22 c 1.81,-0.073 3.79,0.014 6.06,0.246 l 4.06,4.068 c 1.2,1.192 3.16,1.206 4.36,0 0.77,-0.77 1.05,-1.83 0.83,-2.803 l 0.15,0.028 c 4.27,0.697 9.11,1.468 13.83,1.599 l 0.42,0.014 c 1.98,0.059 3.91,-0.014 5.75,-0.203 l 2.12,-0.233 -0.07,-0.072 c 1.64,-0.276 3.17,-0.668 4.64,-1.177 l 0.62,-0.218 c 1.43,-0.494 2.81,-1.148 4.14,-1.903 l 0.57,-0.335 0.6,-0.334 -0.02,-0.014 c 1.15,-0.712 2.3,-1.541 3.36,-2.455 l 0.72,-0.611 c 0.54,-0.451 1.06,-0.945 1.57,-1.453 0.51,-0.509 1,-1.031 1.46,-1.569 z"
               fill="#005e79"
               fill-rule="evenodd"
               id="path8" />
          </g>
        </g>
      </g>
      <path
         d="m 239,353.75 h 69.5 V 341 L 334,366.5 308.5,392 V 379.25 H 239 Z"
         fill="#156082"
         fill-rule="evenodd"
         id="path10" />
      <path
         d="m 142,515 v 0 C 109.967,515 83.9998,489.033 83.9998,457 L 84,366 h 116 v 91 c 0,32.033 -25.968,58 -58,58 z"
         fill="#00a6d6"
         fill-rule="evenodd"
         id="path11" />
      <text
         fill="#ffffff"
         font-family="Montserrat, Montserrat_MSFontService, sans-serif"
         font-weight="700"
         font-size="53px"
         transform="rotate(-90,324.0355,165.9645)"
         id="text11">snac</text>
      <text
         fill="#005e79"
         font-family="Montserrat, Montserrat_MSFontService, sans-serif"
         font-weight="700"
         font-size="53px"
         transform="rotate(-90,263.0355,104.9645)"
         id="text12">c ne</text>
      <text
         fill="#005e79"
         font-family="Montserrat, Montserrat_MSFontService, sans-serif"
         font-weight="700"
         font-size="53px"
         transform="rotate(-90,201.5355,43.4645)"
         id="text13"></text>
      <path
         d="m 108.385,354.986 -5.163,-0.621 c -0.777,-0.093 -1.322,-0.738 -1.219,-1.439 0.07,-0.472 0.423,-0.87 0.918,-1.034 l 2.535,-0.84 c 0.377,-0.103 0.785,-0.058 1.125,0.122 l 2.709,1.437 c 0.675,0.358 0.902,1.143 0.505,1.754 -0.288,0.444 -0.844,0.689 -1.41,0.621 z"
         fill="#005e79"
         fill-rule="evenodd"
         id="path13" />
      <path
         d="m 113.729,353.827 -5.604,-3.145 c -0.623,-0.349 -0.831,-1.115 -0.466,-1.71 0.038,-0.062 0.082,-0.121 0.13,-0.175 0.936,-1.055 1.436,-2.401 1.405,-3.783 -0.078,-3.604 -1.453,-7.072 -3.893,-9.82 -0.467,-0.526 -0.399,-1.314 0.151,-1.761 0.102,-0.083 0.218,-0.151 0.342,-0.2 l 15.386,-6.138 c 0.667,-0.265 1.432,0.036 1.71,0.672 0.114,0.261 0.132,0.552 0.051,0.824 l -7.293,24.5 c -0.198,0.664 -0.921,1.049 -1.615,0.86 -0.106,-0.029 -0.209,-0.071 -0.304,-0.124 z"
         fill="#005e79"
         fill-rule="evenodd"
         id="path14" />
      <path
         d="m 131.99,333.683 -11.767,15.815 c -0.416,0.558 -1.196,0.666 -1.742,0.242 -0.408,-0.317 -0.584,-0.856 -0.444,-1.359 l 5.978,-21.459 c 0.169,-0.607 0.748,-0.995 1.36,-0.912 l 4.007,0.545 c 0.308,2.553 1.202,4.995 2.608,7.128 z"
         fill="#005e79"
         fill-rule="evenodd"
         id="path15" />
      <path
         d="m 157.577,346.618 36.791,11.36 c 0.25,0.077 0.517,-0.062 0.595,-0.311 0.073,-0.232 -0.044,-0.482 -0.271,-0.575 l -31.755,-13.116 c -1.114,-0.46 -1.704,-1.675 -1.372,-2.825 l 3.802,-13.186 6.187,12.07 c 0.236,0.46 0.66,0.798 1.164,0.928 l 20.448,5.283 c 0.254,0.066 0.514,-0.085 0.58,-0.337 0.061,-0.23 -0.061,-0.468 -0.283,-0.557 l -18.694,-7.445 c -0.203,-0.08 -0.372,-0.228 -0.478,-0.418 l -6.689,-11.988 8.436,6.797 c 0.285,0.23 0.648,0.341 1.014,0.311 l 16.545,-1.372 c 0.262,-0.021 0.456,-0.25 0.434,-0.509 -0.02,-0.239 -0.218,-0.425 -0.46,-0.432 l -15.64,-0.469 c -0.246,-0.007 -0.479,-0.108 -0.651,-0.283 l -9.214,-9.331 c -1.824,0.506 -3.763,0.432 -5.542,-0.214 -0.083,3.291 -0.84,6.532 -2.226,9.524 -0.008,0.016 -0.014,0.033 -0.019,0.05 l -4.203,14.271 c -0.346,1.176 0.322,2.41 1.501,2.774 z"
         fill="#005e79"
         fill-rule="evenodd"
         id="path16" />
      <path
         d="m 115.903,292.592 -26.4918,-3.578 c -0.6865,-0.092 -1.317,0.397 -1.4083,1.094 -0.0359,0.273 0.0168,0.551 0.1502,0.792 l 5.244,9.455 c 0.2819,0.508 0.8681,0.757 1.4225,0.603 l 21.2474,-5.877 c 0.669,-0.185 1.063,-0.884 0.88,-1.562 -0.132,-0.494 -0.544,-0.86 -1.044,-0.927 z"
         fill="#005e79"
         fill-rule="evenodd"
         id="path17" />
      <path
         d="m 91.5664,315.937 1.4162,-10.547 c 0.0901,-0.672 -0.386,-1.288 -1.0634,-1.378 -0.2531,-0.033 -0.5102,0.012 -0.7365,0.129 l -8.5247,4.417 c -0.6056,0.313 -0.8401,1.054 -0.5235,1.654 0.1549,0.294 0.4228,0.513 0.7428,0.607 2.8088,0.831 5.1188,2.823 6.337,5.466 0.2839,0.616 1.0182,0.887 1.6397,0.605 0.3872,-0.175 0.6563,-0.535 0.7124,-0.953 z"
         fill="#005e79"
         fill-rule="evenodd"
         id="path18" />
      <path
         d="m 92.0027,318.4 1.793,-13.308 c 0.0926,-0.688 0.7324,-1.171 1.4291,-1.08 0.223,0.029 0.4343,0.117 0.6121,0.253 l 25.6621,19.665 c 0.555,0.425 0.656,1.215 0.225,1.763 -0.135,0.171 -0.312,0.306 -0.515,0.389 l -14.127,5.822 c -0.649,0.267 -1.394,-0.036 -1.664,-0.676 -0.139,-0.329 -0.13,-0.7 0.024,-1.022 l 0.809,-1.688 c 1.072,-2.237 0.344,-4.911 -1.719,-6.317 l -0.784,-0.533 c -2.972,-2.026 -6.676,-2.709 -10.1884,-1.88 -0.6836,0.161 -1.37,-0.255 -1.5332,-0.93 -0.0363,-0.15 -0.0445,-0.306 -0.0237,-0.458 z"
         fill="#005e79"
         fill-rule="evenodd"
         id="path19" />
      <path
         d="m 122.011,295.046 -25.0602,6.563 c -0.6937,0.182 -1.1027,0.87 -0.9137,1.536 0.0742,0.262 0.2351,0.493 0.458,0.66 l 25.3959,18.934 c 0.568,0.424 1.386,0.324 1.827,-0.221 0.18,-0.224 0.277,-0.5 0.273,-0.783 l -0.336,-25.498 c -0.009,-0.691 -0.599,-1.244 -1.318,-1.235 -0.11,10e-4 -0.22,0.016 -0.326,0.044 z"
         fill="#005e79"
         fill-rule="evenodd"
         id="path20" />
      <path
         d="m 131.99,315.275 -5.604,-14.461 c -0.258,-0.666 -0.983,-0.987 -1.62,-0.717 -0.475,0.202 -0.783,0.687 -0.776,1.224 l 0.277,22.874 c 0.007,0.647 0.467,1.189 1.079,1.275 l 3.817,0.531 c -0.252,-3.808 0.745,-7.592 2.827,-10.726 z"
         fill="#005e79"
         fill-rule="evenodd"
         id="path21" />
      <path
         d="m 169.086,306.268 19.354,-2.693 c 0.262,-0.036 0.504,0.145 0.541,0.404 0.033,0.237 -0.116,0.461 -0.348,0.524 l -17.382,4.707 c -0.326,0.089 -0.58,0.34 -0.671,0.662 l -2.746,9.795 c -1.808,0.528 -3.743,0.431 -5.488,-0.275 0.101,-3.273 -1.662,-6.325 -4.562,-7.897 -0.045,-0.024 -0.084,-0.057 -0.116,-0.095 L 147.28,298.927 c -0.453,-0.544 -0.375,-1.347 0.174,-1.795 0.087,-0.071 0.183,-0.131 0.285,-0.177 l 39.698,-17.909 c 0.241,-0.109 0.525,-0.004 0.634,0.235 0.105,0.227 0.014,0.496 -0.208,0.614 l -32.952,17.577 c -0.338,0.18 -0.465,0.598 -0.283,0.933 0.02,0.036 0.042,0.07 0.068,0.101 l 6.612,8.241 -1.366,-3.905 c -0.308,-0.878 0.115,-1.844 0.972,-2.223 l 23.122,-10.224 c 0.242,-0.107 0.525,0 0.633,0.24 0.1,0.221 0.015,0.482 -0.197,0.604 l -20.069,11.51 c -0.376,0.215 -0.559,0.655 -0.444,1.071 l 2.206,7.996 1.53,-4.411 c 0.211,-0.608 0.748,-1.047 1.391,-1.137 z"
         fill="#005e79"
         fill-rule="evenodd"
         id="path22" />
      <path
         d="m 148.987,322.637 v 4.885 c 1.336,1.651 3.837,1.967 5.586,0.706 0.683,-0.493 1.179,-1.181 1.414,-1.961 V 322 c -2.051,1.363 -4.711,1.605 -7,0.637 z"
         fill="#005e79"
         fill-rule="evenodd"
         id="path23" />
      <path
         d="m 140.988,324.527 v 6.404 c 1.743,1.559 4.408,1.394 5.95,-0.37 0.623,-0.713 0.993,-1.617 1.05,-2.568 V 323 c -1.913,1.704 -4.563,2.282 -7,1.527 z"
         fill="#005e79"
         fill-rule="evenodd"
         id="path24" />
      <path
         d="m 139.988,325 v 6.402 c -1.016,1.884 -3.268,2.911 -5.506,2.513 -0.729,-0.13 -1.421,-0.394 -2.037,-0.777 -1.292,-1.847 -2.13,-3.933 -2.457,-6.111 3.478,0.264 6.962,-0.442 10,-2.027 z"
         fill="#005e79"
         fill-rule="evenodd"
         id="path25" />
      <path
         d="m 155.985,321.553 c 2.174,0.306 4.392,-0.268 6,-1.553 -0.133,3.01 -0.968,5.967 -2.457,8.698 -1.199,0.607 -2.747,0.271 -3.459,-0.751 -0.03,-0.043 -0.058,-0.086 -0.084,-0.131 z"
         fill="#005e79"
         fill-rule="evenodd"
         id="path26" />
      <path
         d="m 140.988,323.332 c 2.404,1.358 5.395,0.59 6.934,-1.778 0.302,-2.259 -0.448,-4.533 -2.014,-6.112 -1.652,-0.823 -3.619,-0.473 -4.92,0.876 z"
         fill="#005e79"
         fill-rule="evenodd"
         id="path27" />
      <path
         d="m 132.534,315.726 c -1.884,3.031 -2.762,6.611 -2.5,10.201 3.48,0.338 6.973,-0.497 9.954,-2.38 v -6.97 c -2.12,-1.736 -5.017,-2.066 -7.454,-0.851 z"
         fill="#005e79"
         fill-rule="evenodd"
         id="path28" />
      <path
         d="m 156.278,320.68 c 0.168,-1.934 -0.283,-3.871 -1.292,-5.555 0.905,-1.092 2.189,-1.84 3.621,-2.109 0.269,-0.05 0.548,0.026 0.749,0.204 1.715,1.52 2.671,3.665 2.628,5.899 -1.315,1.688 -3.653,2.328 -5.706,1.561 z"
         fill="#005e79"
         fill-rule="evenodd"
         id="path29" />
      <path
         d="m 148.535,321.776 c 0.364,-1.509 0.169,-3.108 -0.547,-4.469 0.762,-1.146 1.903,-1.946 3.196,-2.241 1.465,-0.335 2.91,0.653 3.226,2.206 0.007,0.036 0.013,0.071 0.019,0.106 l 0.559,3.356 c -1.084,2.108 -3.575,2.885 -5.564,1.736 -0.324,-0.188 -0.624,-0.421 -0.889,-0.694 z"
         fill="#005e79"
         fill-rule="evenodd"
         id="path30" />
      <path
         d="m 105.794,350.201 -5.043,1.838 c -2.4075,0.877 -4.9938,1.16 -7.5359,0.824 l -1.3748,-0.182 c -0.8129,-0.108 -1.4025,-0.824 -1.3485,-1.637 0.0541,-0.813 0.7335,-1.445 1.5536,-1.446 3.1977,0 5.8371,-2.485 6.011,-5.659 0.1742,-3.173 -2.1781,-5.929 -5.3569,-6.275 -0.8778,-0.095 -1.2851,-1.132 -0.7047,-1.794 l 2.4619,-2.805 c 1.1172,-1.273 0.8567,-3.231 -0.5551,-4.172 -3.4991,-2.331 -8.1125,-2.148 -11.4136,0.453 -0.4861,0.383 -1.2022,0.039 -1.2022,-0.577 v -4.832 c 0,-2.847 -2.3218,-5.154 -5.1859,-5.154 l 3.1071,1.059 c -0.5657,0 -2.4241,-0.82 -2.7248,-2.119 -0.3006,-1.3 -1.2915,-6.241 0.9208,-5.679 2.2123,0.562 12.3414,2.674 12.3531,9.05 10e-4,0.582 0.5593,1.002 1.1226,0.846 l 3.0672,-0.852 c 3.3788,-0.938 7.0021,-0.336 9.8901,1.644 l 0.78,0.535 c 1.708,1.171 2.311,3.399 1.423,5.263 l -2.017,4.236 c -0.381,0.801 -0.208,1.755 0.431,2.374 2.831,2.738 4.463,6.473 4.546,10.398 0.043,2.075 -1.244,3.949 -3.205,4.663 z"
         fill="#005e79"
         fill-rule="evenodd"
         id="path31" />
      <path
         d="m 102.616,351 c 2.44,-0.877 4.042,-3.176 3.988,-5.722 -0.07,-3.288 -1.457,-6.418 -3.862,-8.712 -1.378,-1.315 -1.752,-3.344 -0.929,-5.049 l 2.035,-4.214 c 0.393,-0.814 0.126,-1.788 -0.631,-2.299 l -0.787,-0.532 c -2.328,-1.574 -5.2488,-2.053 -7.9727,-1.307 l -3.0946,0.847 c -2.0934,0.573 -4.1681,-0.967 -4.1721,-3.098 -0.0088,-4.765 -8.1658,-8.559 -9.3624,-6.764 -1.1965,1.794 4.9099,15.556 2.1831,17.531 l -2.5751,-11.173 c -0.5707,0 -0.7588,-6.79 -0.8108,-8.223 -0.0521,-1.434 -1.6619,-1.817 0.4982,-0.379 2.1601,1.437 12.4506,2.66 12.4624,9.004 0.001,0.578 0.5642,0.996 1.1325,0.841 l 3.0944,-0.847 c 3.4086,-0.934 7.0641,-0.334 9.9781,1.635 l 0.787,0.532 c 1.723,1.165 2.33,3.382 1.435,5.237 l -2.035,4.214 c -0.384,0.797 -0.21,1.746 0.435,2.362 2.856,2.724 4.503,6.44 4.586,10.345 0.044,2.064 -1.255,3.928 -3.233,4.639 z"
         fill="#005e79"
         fill-rule="evenodd"
         id="path32" />
      <path
         d="m 84,276 c 0,-32.032 25.968,-58 58,-58 v 0 c 32.033,0 58,25.968 58,58 v 181 c 0,32.033 -25.968,58 -58,58 v 0 c -32.032,0 -58,-25.968 -58,-58 z"
         stroke="#00a6d6"
         stroke-width="20"
         stroke-miterlimit="8"
         fill="none"
         fill-rule="evenodd"
         id="path33" />
      <path
         d="m 382.152,398.373 -24.215,78.298 c -0.164,0.534 0.133,1.102 0.663,1.268 0.496,0.155 1.027,-0.095 1.226,-0.577 l 27.957,-67.581 c 0.982,-2.372 3.572,-3.627 6.023,-2.921 l 28.104,8.093 -25.727,13.166 c -0.981,0.502 -1.7,1.404 -1.979,2.476 l -11.259,43.518 c -0.14,0.542 0.181,1.094 0.719,1.236 0.489,0.128 0.998,-0.13 1.187,-0.603 l 15.868,-39.784 c 0.171,-0.432 0.488,-0.792 0.893,-1.017 l 25.553,-14.236 -14.489,17.953 c -0.489,0.606 -0.726,1.379 -0.663,2.158 l 2.925,35.21 c 0.046,0.558 0.531,0.972 1.086,0.925 0.51,-0.043 0.904,-0.464 0.918,-0.978 l 0.999,-33.286 c 0.017,-0.523 0.234,-1.02 0.604,-1.386 l 19.889,-19.609 c -1.078,-3.883 -0.918,-8.009 0.458,-11.796 -7.018,-0.175 -13.923,-1.787 -20.302,-4.736 -0.035,-0.016 -0.07,-0.03 -0.108,-0.041 l -30.416,-8.944 c -2.506,-0.737 -5.139,0.684 -5.914,3.194 z"
         fill="#00a6d6"
         fill-rule="evenodd"
         id="path34" />
      <path
         d="m 436.616,396.985 c -0.646,3.987 0.564,8.053 3.279,11 -6.356,-0.243 -12.597,-1.774 -18.362,-4.504 -1.281,-2.198 -0.571,-5.037 1.586,-6.342 0.091,-0.055 0.182,-0.106 0.274,-0.154 z"
         fill="#00a6d6"
         fill-rule="evenodd"
         id="path35" />
      <path
         d="m 435.895,394.985 h -13.516 c -3.977,-2.033 -6.148,-6.536 -5.304,-11.013 0.272,-1.457 0.83,-2.842 1.64,-4.073 3.898,-2.584 8.301,-4.261 12.9,-4.914 -0.558,6.956 0.935,13.923 4.28,20 z"
         fill="#00a6d6"
         fill-rule="evenodd"
         id="path36" />
      <path
         d="m 416.884,378.985 -32.947,-26.056 c -1.164,-0.92 -1.388,-2.647 -0.503,-3.857 0.658,-0.903 1.782,-1.292 2.829,-0.982 l 44.709,13.236 c 1.261,0.374 2.07,1.656 1.898,3.011 l -1.137,8.873 c -5.316,0.683 -10.404,2.661 -14.849,5.775 z"
         fill="#00a6d6"
         fill-rule="evenodd"
         id="path37" />
      <path
         d="m 371.913,327.95 7.745,-56.638 c 0.2,-1.467 1.585,-2.498 3.095,-2.303 0.592,0.077 1.141,0.338 1.568,0.746 l 16.744,16.03 c 0.901,0.862 1.084,2.208 0.445,3.267 l -24.489,40.609 c -0.771,1.277 -2.461,1.704 -3.77,0.955 -0.958,-0.546 -1.485,-1.596 -1.338,-2.666 z"
         fill="#00a6d6"
         fill-rule="evenodd"
         id="path38" />
      <path
         d="m 385.539,262.262 52.626,-22.067 c 1.368,-0.574 2.942,0.069 3.516,1.435 0.409,0.97 0.213,2.088 -0.504,2.86 l -35.766,38.633 c -1.008,1.089 -2.708,1.155 -3.799,0.149 -0.017,-0.019 -0.038,-0.038 -0.06,-0.058 l -16.859,-16.565 c -1.057,-1.04 -1.071,-2.738 -0.028,-3.795 0.248,-0.253 0.545,-0.454 0.874,-0.592 z"
         fill="#00a6d6"
         fill-rule="evenodd"
         id="path39" />
      <path
         d="m 373.26,339.834 27.11,-46.514 c 0.748,-1.287 2.394,-1.718 3.673,-0.963 0.5,0.296 0.895,0.749 1.119,1.29 l 25.523,61.595 c 0.569,1.377 -0.077,2.96 -1.444,3.535 -0.562,0.235 -1.185,0.272 -1.768,0.105 L 374.84,343.801 c -1.426,-0.409 -2.251,-1.904 -1.845,-3.339 0.063,-0.22 0.15,-0.431 0.265,-0.628 z"
         fill="#00a6d6"
         fill-rule="evenodd"
         id="path40" />
      <path
         d="m 469.036,423.291 5.713,40.551 c 0.077,0.549 -0.304,1.056 -0.857,1.133 -0.5,0.071 -0.975,-0.242 -1.112,-0.729 l -9.986,-36.419 c -0.188,-0.682 -0.72,-1.216 -1.405,-1.405 l -20.787,-5.755 c -1.118,-3.787 -0.912,-7.842 0.588,-11.498 6.944,0.211 13.419,-3.482 16.755,-9.559 0.052,-0.093 0.119,-0.175 0.203,-0.242 l 26.464,-21.766 c 1.154,-0.948 2.861,-0.785 3.811,0.364 0.151,0.182 0.277,0.383 0.375,0.599 l 38.003,83.175 c 0.23,0.505 0.007,1.1 -0.5,1.33 -0.483,0.219 -1.053,0.027 -1.304,-0.438 L 487.7,393.59 c -0.381,-0.708 -1.266,-0.973 -1.979,-0.592 -0.074,0.041 -0.147,0.089 -0.217,0.142 l -17.486,13.855 8.287,-2.863 c 1.863,-0.645 3.912,0.24 4.717,2.037 l 21.695,48.446 c 0.227,0.507 0,1.1 -0.507,1.326 -0.472,0.21 -1.024,0.031 -1.283,-0.414 l -24.423,-42.048 c -0.458,-0.789 -1.392,-1.171 -2.273,-0.931 l -16.968,4.622 9.36,3.206 c 1.29,0.442 2.224,1.568 2.413,2.915 z"
         fill="#00a6d6"
         fill-rule="evenodd"
         id="path41" />
      <path
         d="m 439.886,396.99 c -1.961,3.434 -0.852,7.708 2.569,9.906 3.264,0.43 6.546,-0.64 8.828,-2.877 1.191,-2.361 0.683,-5.17 -1.265,-7.029 z"
         fill="#00a6d6"
         fill-rule="evenodd"
         id="path42" />
      <path
         d="m 455.759,378.985 29.477,-11.907 c 1.358,-0.549 2.012,-2.091 1.462,-3.443 -0.411,-1.009 -1.4,-1.663 -2.492,-1.65 l -46.632,0.588 c -1.317,0.017 -2.423,0.994 -2.599,2.295 l -1.082,8.109 c 7.763,-0.534 15.475,1.585 21.866,6.008 z"
         fill="#00a6d6"
         fill-rule="evenodd"
         id="path43" />
      <path
         d="m 503.417,344.657 7.453,-56.638 c 0.193,-1.467 -0.829,-2.815 -2.279,-3.011 -0.569,-0.076 -1.149,0.037 -1.65,0.322 l -19.699,11.211 c -1.056,0.602 -1.574,1.856 -1.256,3.041 l 12.243,45.426 c 0.387,1.429 1.843,2.271 3.255,1.882 1.032,-0.284 1.792,-1.164 1.933,-2.233 z"
         fill="#00a6d6"
         fill-rule="evenodd"
         id="path44" />
      <path
         d="M 507.842,278.598 462.28,243.552 c -1.183,-0.911 -2.893,-0.702 -3.813,0.467 -0.659,0.829 -0.761,1.96 -0.266,2.892 l 24.7,46.633 c 0.698,1.314 2.34,1.822 3.671,1.135 0.025,-0.013 0.05,-0.026 0.075,-0.039 l 20.859,-11.587 c 1.31,-0.727 1.77,-2.363 1.034,-3.655 -0.174,-0.309 -0.411,-0.581 -0.698,-0.8 z"
         fill="#00a6d6"
         fill-rule="evenodd"
         id="path45" />
      <path
         d="m 408.604,282.414 39.622,-43.558 c 1,-1.1 2.689,-1.167 3.77,-0.15 0.226,0.211 0.413,0.459 0.552,0.735 l 27.039,52.574 c 0.685,1.328 0.178,2.967 -1.129,3.661 -0.487,0.259 -1.043,0.359 -1.588,0.285 l -33.329,-4.508 -33.332,-4.509 c -1.459,-0.197 -2.488,-1.562 -2.293,-3.047 0.073,-0.554 0.313,-1.073 0.688,-1.483 z"
         fill="#00a6d6"
         fill-rule="evenodd"
         id="path46" />
      <path
         d="m 408.939,288.008 34.305,4.577 34.309,4.576 c 1.473,0.197 2.511,1.554 2.314,3.033 -0.063,0.473 -0.252,0.921 -0.543,1.298 l -42.139,54.448 c -0.912,1.178 -2.605,1.392 -3.78,0.478 -0.368,-0.286 -0.656,-0.662 -0.835,-1.093 l -26.471,-63.601 c -0.572,-1.376 0.077,-2.957 1.448,-3.531 0.442,-0.184 0.922,-0.247 1.392,-0.185 z"
         fill="#00a6d6"
         fill-rule="evenodd"
         id="path47" />
      <path
         d="m 498.797,355.954 -14.064,-51.015 c -0.391,-1.412 -1.864,-2.245 -3.291,-1.86 -0.562,0.151 -1.058,0.478 -1.413,0.932 l -40.575,51.7 c -0.907,1.156 -0.694,2.821 0.475,3.718 0.478,0.368 1.071,0.564 1.675,0.556 l 54.639,-0.684 c 1.483,-0.018 2.666,-1.22 2.649,-2.683 -0.004,-0.224 -0.035,-0.447 -0.095,-0.664 z"
         fill="#00a6d6"
         fill-rule="evenodd"
         id="path48" />
      <path
         d="m 453.511,379.331 c -5.786,-3.957 -12.625,-5.8 -19.477,-5.252 -0.643,7.309 0.952,14.644 4.544,20.906 h 13.308 c 3.314,-4.454 3.944,-10.536 1.625,-15.654 z"
         fill="#00a6d6"
         fill-rule="evenodd"
         id="path49" />
    </g>
  </g>
</svg>
