<svg
   width="1000"
   height="500"
   viewBox="0 0 264.58333 132.29167"
   version="1.1"
   id="svg1"
   inkscape:version="1.4.2 (f4327f4, 2025-05-13)"
   sodipodi:docname="mainlogowithsubtitle.svg"
   xmlns:inkscape="http://www.inkscape.org/namespaces/inkscape"
   xmlns:sodipodi="http://sodipodi.sourceforge.net/DTD/sodipodi-0.dtd"
   xmlns="http://www.w3.org/2000/svg"
   xmlns:svg="http://www.w3.org/2000/svg">
  <sodipodi:namedview
     id="namedview1"
     pagecolor="#ffffff"
     bordercolor="#666666"
     borderopacity="1.0"
     inkscape:showpageshadow="2"
     inkscape:pageopacity="0.0"
     inkscape:pagecheckerboard="0"
     inkscape:deskcolor="#d1d1d1"
     inkscape:document-units="px"
     inkscape:zoom="0.68862937"
     inkscape:cx="499.54303"
     inkscape:cy="498.81695"
     inkscape:window-width="1920"
     inkscape:window-height="991"
     inkscape:window-x="-9"
     inkscape:window-y="-9"
     inkscape:window-maximized="1"
     inkscape:current-layer="layer1" />
  <defs
     id="defs1" />
  <g
     inkscape:label="Layer 1"
     inkscape:groupmode="layer"
     id="layer1">
    <text
       fill="#004459"
       font-family="Montserrat, Montserrat_MSFontService, sans-serif"
       font-weight="400"
       font-size="13.7789px"
       id="text1"
       x="32.576073"
       y="99.153992"
       style="stroke-width:0.183719">a phage</text>
    <text
       fill="#004459"
       font-family="Montserrat, Montserrat_MSFontService, sans-serif"
       font-weight="400"
       font-size="13.7789px"
       id="text2"
       x="89.213181"
       y="99.153992"
       style="stroke-width:0.183719">-</text>
    <text
       fill="#004459"
       font-family="Montserrat, Montserrat_MSFontService, sans-serif"
       font-weight="400"
       font-size="13.7789px"
       id="text3"
       x="94.081718"
       y="99.153992"
       style="stroke-width:0.183719">based</text>
    <text
       fill="#004459"
       font-family="Montserrat, Montserrat_MSFontService, sans-serif"
       font-weight="400"
       font-size="13.7789px"
       id="text4"
       x="133.88747"
       y="99.153992"
       style="stroke-width:0.183719"></text>
    <text
       fill="#004459"
       font-family="Montserrat, Montserrat_MSFontService, sans-serif"
       font-weight="400"
       font-size="13.7789px"
       id="text5"
       x="41.078915"
       y="110.72826"
       style="stroke-width:0.183719">edible vaccine</text>
    <text
       fill="#004459"
       font-family="Montserrat, Montserrat_MSFontService, sans-serif"
       font-weight="400"
       font-size="13.7789px"
       id="text6"
       x="133.88747"
       y="110.72826"
       style="stroke-width:0.183719"
       inkscape:label="text6"></text>
    <path
       d="m 38.050866,59.822235 c -2.166961,0 -4.028398,0.317466 -5.58431,0.953499 -1.555729,0.607741 -2.750451,1.450275 -3.583982,2.528703 -0.805606,1.077509 -1.208501,2.321284 -1.208501,3.730222 0,1.270965 0.236262,2.308056 0.708419,3.109436 0.500082,0.801197 1.153018,1.437231 1.958624,1.906815 0.805789,0.469769 1.694804,0.828571 2.667226,1.07751 0.972422,0.220646 1.930882,0.401058 2.875563,0.539214 0.972239,0.137973 1.861437,0.276129 2.667042,0.414285 0.80579,0.137973 1.44458,0.345575 1.91692,0.621888 0.500082,0.248938 0.750123,0.63585 0.750123,1.161101 0,0.634931 -0.319487,1.132809 -0.95846,1.491611 -0.611231,0.358802 -1.666878,0.539214 -3.167124,0.539214 -1.361171,0 -2.750635,-0.193456 -4.167289,-0.580551 -1.389279,-0.414285 -2.59778,-0.939353 -3.625686,-1.575386 l -2.16696,4.642384 c 1.027905,0.691517 2.417001,1.271884 4.167288,1.741652 1.778212,0.442395 3.625503,0.663224 5.542606,0.663224 2.250369,0 4.153326,-0.304421 5.709238,-0.912162 1.58347,-0.607741 2.792155,-1.437231 3.625502,-2.48755 0.833531,-1.077326 1.250205,-2.306954 1.250205,-3.688885 0,-1.270965 -0.249857,-2.29391 -0.750123,-3.066998 -0.500082,-0.802299 -1.152834,-1.424186 -1.958623,-1.865662 -0.777865,-0.469585 -1.652916,-0.829489 -2.625339,-1.078428 -0.972422,-0.247836 -1.944845,-0.428248 -2.917267,-0.538112 -0.944497,-0.138156 -1.819732,-0.290275 -2.625338,-0.45654 -0.805606,-0.165347 -1.458542,-0.386177 -1.958624,-0.663224 -0.47234,-0.276129 -0.708602,-0.690415 -0.708602,-1.243775 0,-0.607741 0.333449,-1.1047 1.000347,-1.491611 0.666715,-0.387095 1.722545,-0.580551 3.167125,-0.580551 1.028089,0 2.083736,0.123827 3.167124,0.372765 1.111497,0.221749 2.208665,0.65018 3.292237,1.285112 l 2.16696,-4.601048 C 45.62154,61.134537 44.30189,60.651724 42.718236,60.320112 41.134582,59.9885 39.578853,59.822235 38.050866,59.822235 Z m 27.004425,0 c -1.91692,0 -3.625686,0.400139 -5.125748,1.202438 -0.891954,0.475647 -1.645568,1.089451 -2.292073,1.810179 v -2.681005 h -6.20932 v 22.301597 h 6.501065 V 71.429023 c 0,-1.381747 0.222116,-2.514556 0.666715,-3.399528 0.47234,-0.88387 1.111129,-1.532948 1.916919,-1.948336 0.833531,-0.441475 1.764249,-0.663224 2.792155,-0.663224 1.444763,0 2.556076,0.428432 3.333941,1.285112 0.805606,0.856679 1.208501,2.183127 1.208501,3.980262 v 11.772135 h 6.501065 V 69.687371 c 0,-2.265617 -0.402711,-4.117133 -1.208501,-5.554363 -0.805606,-1.464605 -1.916919,-2.541931 -3.333941,-3.233447 -1.389096,-0.718524 -2.97275,-1.077326 -4.750778,-1.077326 z m 24.212454,0 c -1.778029,0 -3.528499,0.234792 -5.251044,0.704561 -1.722362,0.469584 -3.194866,1.132808 -4.41733,1.989488 l 2.333594,4.518375 c 0.805789,-0.634932 1.778212,-1.132809 2.917267,-1.491611 1.16698,-0.387095 2.347739,-0.580551 3.542278,-0.580551 1.75047,0 3.042012,0.386911 3.875543,1.159999 0.861272,0.774006 1.291909,1.851516 1.291909,3.233263 H 88.39251 c -2.278111,0 -4.125768,0.290275 -5.542606,0.870826 -1.416838,0.552442 -2.458706,1.326448 -3.12542,2.321284 -0.638974,0.994836 -0.95846,2.155938 -0.95846,3.482202 0,1.270965 0.333265,2.41792 0.99998,3.441049 0.666715,1.022026 1.625358,1.837369 2.875563,2.44511 1.250021,0.580551 2.750267,0.870826 4.500738,0.870826 1.972402,0 3.583981,-0.372948 4.834186,-1.119764 0.852271,-0.507982 1.509432,-1.190313 2.000328,-2.020905 v 2.809057 h 6.084211 V 69.728708 c 0,-3.39861 -0.9445,-5.899204 -2.833678,-7.502699 -1.889178,-1.602577 -4.542442,-2.403774 -7.959607,-2.403774 z m 27.669855,0 c -2.417,0 -4.57037,0.496775 -6.45955,1.491611 -1.88917,0.967646 -3.37527,2.322203 -4.45885,4.062753 -1.05583,1.713543 -1.58365,3.688885 -1.58365,5.927495 0,2.211421 0.52782,4.186763 1.58365,5.928415 1.08358,1.740733 2.56968,3.108335 4.45885,4.103171 1.88918,0.967462 4.04255,1.451376 6.45955,1.451376 2.36152,0 4.41733,-0.483914 6.16761,-1.451376 1.75048,-0.994836 3.04202,-2.389812 3.87555,-4.186763 l -5.04234,-2.735386 c -0.58331,1.077326 -1.31965,1.865479 -2.20867,2.362437 -0.86127,0.469585 -1.80595,0.704561 -2.83386,0.704561 -1.11131,0 -2.11129,-0.24802 -3.00049,-0.745897 -0.88901,-0.496959 -1.59761,-1.202438 -2.12544,-2.113499 -0.50008,-0.912162 -0.74994,-2.017781 -0.74994,-3.317039 0,-1.298155 0.24986,-2.403773 0.74994,-3.315936 0.52783,-0.912163 1.23643,-1.616723 2.12544,-2.113498 0.8892,-0.498061 1.88918,-0.747 3.00049,-0.747 1.02791,0 1.97259,0.248939 2.83386,0.747 0.88902,0.496775 1.62536,1.270965 2.20867,2.3211 l 5.04234,-2.694049 c -0.83353,-1.824326 -2.12507,-3.220219 -3.87555,-4.187865 -1.75028,-0.994836 -3.80609,-1.491611 -6.16761,-1.491611 z m 24.34528,0 c -2.41718,0 -4.57018,0.496775 -6.45936,1.491611 -1.88918,0.967646 -3.37565,2.322203 -4.45922,4.062753 -1.05564,1.713543 -1.58347,3.688885 -1.58347,5.927495 0,2.211421 0.52783,4.186763 1.58347,5.928415 1.08357,1.740733 2.57004,3.108335 4.45922,4.103171 1.88918,0.967462 4.04218,1.451376 6.45936,1.451376 2.36152,0 4.41733,-0.483914 6.16762,-1.451376 1.75028,-0.994836 3.04219,-2.389812 3.87572,-4.186763 l -5.04252,-2.735386 c -0.58349,1.077326 -1.31965,1.865479 -2.20866,2.362437 -0.86128,0.469585 -1.80596,0.704561 -2.83405,0.704561 -1.11113,0 -2.11129,-0.24802 -3.0003,-0.745897 -0.88902,-0.496959 -1.59744,-1.202438 -2.12526,-2.113499 -0.50008,-0.912162 -0.75031,-2.017781 -0.75031,-3.317039 0,-1.298155 0.25023,-2.403773 0.75031,-3.315936 0.52782,-0.912163 1.23624,-1.616723 2.12526,-2.113498 0.88901,-0.498061 1.88917,-0.747 3.0003,-0.747 1.02809,0 1.97277,0.248939 2.83405,0.747 0.88901,0.496775 1.62517,1.270965 2.20866,2.3211 l 5.04252,-2.694049 c -0.83353,-1.824326 -2.12544,-3.220219 -3.87572,-4.187865 -1.75029,-0.994836 -3.8061,-1.491611 -6.16762,-1.491611 z M 89.100928,73.12842 h 4.459034 v 2.279764 c -0.388932,0.994836 -1.013943,1.754879 -1.875216,2.279947 -0.861272,0.497877 -1.833695,0.745897 -2.917083,0.745897 -1.139239,0 -2.042216,-0.234976 -2.70893,-0.70456 -0.638974,-0.496959 -0.95846,-1.160183 -0.95846,-1.989672 0,-0.745714 0.277782,-1.367601 0.833531,-1.865662 0.58349,-0.496775 1.639137,-0.745714 3.167124,-0.745714 z"
       fill="#004459"
       fill-rule="evenodd"
       id="path6"
       style="stroke-width:0.183719" />
    <path
       d="m 186.42658,59.822235 c -1.91564,0 -3.62312,0.400139 -5.12226,1.202438 -0.88571,0.472708 -1.64704,1.070344 -2.2906,1.78501 v -2.655836 h -6.20528 v 22.301597 h 6.49684 V 71.429023 c 0,-1.381747 0.22193,-2.514556 0.66616,-3.399528 0.47197,-0.88387 1.11076,-1.532948 1.91582,-1.948336 0.83298,-0.441475 1.76296,-0.663224 2.79031,-0.663224 1.44367,0 2.55424,0.428432 3.33156,1.285112 0.80597,0.856679 1.20831,2.183127 1.20831,3.980262 v 11.772135 h 6.49629 V 69.687371 c 0,-2.265617 -0.40234,-4.117133 -1.20703,-5.554363 -0.80652,-1.464605 -1.91618,-2.541931 -3.33265,-3.233447 -1.38708,-0.718524 -2.97055,-1.077326 -4.74747,-1.077326 z m 25.61055,0 c -2.27628,0 -4.31739,0.496775 -6.1215,1.491611 -1.80412,0.967646 -3.23529,2.322203 -4.28983,4.062753 -1.02699,1.713543 -1.5414,3.688885 -1.5414,5.927495 0,2.211421 0.52911,4.186763 1.58365,5.928415 1.05455,1.713359 2.54083,3.066998 4.45518,4.061834 1.94374,0.994836 4.19246,1.492713 6.74798,1.492713 2.02642,0 3.81767,-0.304421 5.37193,-0.912162 1.55426,-0.636034 2.8458,-1.53405 3.87279,-2.69405 l -3.45575,-3.731324 c -0.75141,0.718707 -1.58365,1.257921 -2.49857,1.616724 -0.8892,0.359721 -1.93088,0.539214 -3.12505,0.539214 -1.33196,0 -2.49858,-0.234793 -3.498,-0.704561 -0.97188,-0.497877 -1.73431,-1.202438 -2.29098,-2.114601 -0.2866,-0.509819 -0.48685,-1.0652 -0.61913,-1.657876 h 16.9462 c 0.0276,-0.276129 0.0533,-0.566404 0.0827,-0.870826 0.0276,-0.331612 0.0404,-0.621887 0.0404,-0.869908 0,-2.404692 -0.51258,-4.462891 -1.53957,-6.17625 -1.02698,-1.741652 -2.43059,-3.068101 -4.20715,-3.980263 -1.749,-0.939353 -3.7203,-1.408938 -5.9139,-1.408938 z m 0.0422,4.891323 c 1.10966,0 2.08337,0.248939 2.91562,0.745714 0.83224,0.469768 1.48444,1.133911 1.9566,1.990591 0.31232,0.566588 0.51074,1.206479 0.61729,1.905896 h -11.01025 c 0.10839,-0.687291 0.30314,-1.314139 0.60627,-1.86456 0.47216,-0.884972 1.12436,-1.562159 1.95844,-2.031927 0.8598,-0.496775 1.84454,-0.745714 2.95603,-0.745714 z"
       fill="#004459"
       fill-rule="evenodd"
       id="path7"
       style="stroke-width:0.183719" />
    <path
       d="m 139.0202,43.918821 0.42788,-3.320346 c 0.0643,-0.499163 0.50835,-0.849882 0.99172,-0.78356 0.32518,0.04464 0.59965,0.271904 0.71246,0.590104 l 0.57871,1.630135 c 0.0705,0.242692 0.04,0.504859 -0.0841,0.723484 l -0.98988,1.741836 c -0.24673,0.43431 -0.78778,0.579816 -1.20832,0.324998 -0.30662,-0.18574 -0.47527,-0.543072 -0.42843,-0.906651 z"
       fill="#007799"
       fill-rule="evenodd"
       id="path8"
       style="stroke-width:0.183719" />
    <path
       d="m 139.31966,47.986901 2.26783,-3.832737 c 0.25187,-0.425676 0.80413,-0.568241 1.2333,-0.318384 0.0448,0.02609 0.0873,0.05585 0.12677,0.0891 0.76077,0.639709 1.73118,0.981425 2.7284,0.960849 2.59925,-0.05383 5.10039,-0.994102 7.08235,-2.662266 0.37956,-0.319487 0.94836,-0.273373 1.27023,0.103066 0.0601,0.07018 0.10895,0.149179 0.14477,0.234057 l 4.42652,10.521747 c 0.1918,0.455438 -0.0254,0.978852 -0.48465,1.169001 -0.18813,0.0779 -0.39757,0.09002 -0.59378,0.03472 l -17.67134,-4.987225 c -0.47859,-0.135033 -0.75619,-0.629419 -0.62005,-1.104148 0.0208,-0.07275 0.0511,-0.142566 0.0897,-0.207786 z"
       fill="#007799"
       fill-rule="evenodd"
       id="path9"
       style="stroke-width:0.183719" />
    <path
       d="m 153.93374,61.117084 -11.25827,-8.492943 c -0.39739,-0.300012 -0.47473,-0.862742 -0.17251,-1.257369 0.22524,-0.294134 0.60921,-0.421083 0.96727,-0.320038 l 15.27731,4.314447 c 0.43173,0.121805 0.70805,0.539765 0.64871,0.981241 l -0.38783,2.892281 c -1.81716,0.222667 -3.55569,0.867519 -5.07468,1.882381 z"
       fill="#007799"
       fill-rule="evenodd"
       id="path10"
       style="stroke-width:0.183719" />
    <path
       d="m 144.76692,79.148326 -8.12826,26.169794 c -0.0555,0.17839 0.0437,0.36817 0.22175,0.42365 0.16645,0.052 0.34502,-0.0316 0.41208,-0.19309 l 9.38471,-22.587642 c 0.32922,-0.792562 1.1984,-1.212359 2.02164,-0.976281 l 9.43487,2.704889 -8.63643,4.400794 c -0.32922,0.167735 -0.57118,0.469034 -0.66433,0.827469 l -3.78019,14.545181 c -0.047,0.18096 0.0612,0.36579 0.24141,0.41282 0.16443,0.043 0.3351,-0.0432 0.3983,-0.20136 l 5.32692,-13.297181 c 0.0581,-0.144403 0.16388,-0.264555 0.29964,-0.340063 l 8.57746,-4.757943 -4.8634,6.000616 c -0.16425,0.202457 -0.2438,0.460949 -0.22212,0.720911 l 0.98124,11.76883 c 0.0156,0.18629 0.17876,0.32445 0.3645,0.30901 0.17104,-0.0143 0.30406,-0.15506 0.30938,-0.32702 l 0.33511,-11.125258 c 0.005,-0.1749 0.0777,-0.340982 0.20245,-0.463155 l 6.67689,-6.55416 c -0.3623,-1.297788 -0.30883,-2.676779 0.15304,-3.942416 -2.35509,-0.05861 -4.6738,-0.597269 -6.81468,-1.583103 -0.0118,-0.0053 -0.0239,-0.0099 -0.0362,-0.01359 l -10.21108,-2.989285 c -0.84125,-0.246367 -1.72401,0.228546 -1.98471,1.067588 z"
       fill="#007799"
       fill-rule="evenodd"
       id="path11"
       style="stroke-width:0.183719" />
    <path
       d="m 183.14573,49.860096 2.51952,-19.132452 c 0.0652,-0.495857 -0.27944,-0.951295 -0.77015,-1.017066 -0.19254,-0.02591 -0.38838,0.01212 -0.55777,0.108394 l -6.65851,3.787174 c -0.35789,0.203744 -0.53297,0.627032 -0.42513,1.027354 l 4.13918,15.345461 c 0.13007,0.482445 0.62281,0.767026 1.10029,0.635483 0.34796,-0.0959 0.60499,-0.392974 0.65257,-0.754348 z"
       fill="#00a6d6"
       fill-rule="evenodd"
       id="path12"
       style="stroke-width:0.183719" />
    <path
       d="M 184.59141,27.510915 169.49177,15.748132 c -0.39261,-0.305837 -0.95883,-0.235583 -1.26472,0.156657 -0.21716,0.278388 -0.25151,0.657969 -0.0878,0.970824 l 8.18668,15.651922 c 0.23057,0.44074 0.77493,0.611415 1.21604,0.380848 0.008,-0.0042 0.0163,-0.0088 0.0244,-0.01323 l 6.91315,-3.889138 c 0.43357,-0.243795 0.58734,-0.792929 0.34318,-1.226321 -0.0586,-0.104169 -0.13724,-0.195293 -0.2313,-0.268781 z"
       fill="#00a6d6"
       fill-rule="evenodd"
       id="path13"
       style="stroke-width:0.183719" />
    <path
       d="m 166.61528,32.169467 7.75054,1.017066 c 0.49347,0.06467 0.9467,-0.277231 1.01229,-0.763718 0.0244,-0.181698 -0.009,-0.366519 -0.0948,-0.528926 l -3.24539,-6.122237 c -0.23057,-0.434862 -0.77511,-0.603332 -1.21622,-0.375889 -0.2155,0.11115 -0.37644,0.303687 -0.44606,0.533519 -0.6105,2.017046 -2.07455,3.676025 -4.01609,4.550893 -0.45269,0.203927 -0.6522,0.7312 -0.44515,1.177636 0.12878,0.27815 0.39352,0.471422 0.70088,0.511656 z"
       fill="#00a6d6"
       fill-rule="evenodd"
       id="path14"
       style="stroke-width:0.183719" />
    <path
       d="m 164.90486,32.649707 9.51754,1.262698 c 0.492,0.06522 0.83776,0.515882 0.77236,1.006594 -0.0209,0.15708 -0.0834,0.305708 -0.18078,0.431004 l -14.06403,18.072763 c -0.30423,0.390953 -0.8688,0.461869 -1.26104,0.158549 -0.12272,-0.09498 -0.21863,-0.220095 -0.27852,-0.363028 l -4.16343,-9.948911 c -0.19107,-0.456725 0.0252,-0.981425 0.48337,-1.172125 0.23497,-0.09774 0.50045,-0.09149 0.73046,0.01709 l 1.20777,0.569711 c 1.59982,0.7549 3.51251,0.242509 4.51745,-1.210338 l 0.38177,-0.55189 c 1.44825,-2.093657 1.93694,-4.70191 1.34427,-7.17568 -0.11538,-0.481343 0.18261,-0.964706 0.66543,-1.079714 0.10711,-0.02554 0.21807,-0.03123 0.32738,-0.01672 z"
       fill="#00a6d6"
       fill-rule="evenodd"
       id="path15"
       style="stroke-width:0.183719" />
    <path
       d="m 181.78382,53.678135 -4.78035,-17.429381 c -0.13228,-0.482629 -0.6331,-0.767025 -1.11848,-0.635666 -0.19052,0.05163 -0.35917,0.163509 -0.48024,0.318568 l -13.79029,17.663438 c -0.30846,0.394995 -0.23607,0.963604 0.16131,1.270047 0.16296,0.125663 0.36376,0.19272 0.56989,0.189965 l 18.57083,-0.23369 c 0.5032,-0.0062 0.90591,-0.416674 0.89948,-0.916756 -9.1e-4,-0.07643 -0.0118,-0.15267 -0.0322,-0.226525 z"
       fill="#00a6d6"
       fill-rule="evenodd"
       id="path16"
       style="stroke-width:0.183719" />
    <path
       d="m 167.19786,61.1169 10.01358,-3.989265 c 0.4615,-0.183719 0.68398,-0.700152 0.49659,-1.153385 -0.13945,-0.337859 -0.47565,-0.557219 -0.84695,-0.552626 l -15.84039,0.19713 c -0.44773,0.0055 -0.82343,0.332898 -0.8824,0.768679 l -0.36818,2.71683 c 2.6371,-0.179126 5.25729,0.530947 7.42775,2.012637 z"
       fill="#00a6d6"
       fill-rule="evenodd"
       id="path17"
       style="stroke-width:0.183719" />
    <path
       d="m 173.84167,87.430911 1.93051,13.714409 c 0.0261,0.18574 -0.10361,0.35733 -0.28954,0.38342 -0.16957,0.0239 -0.33032,-0.0818 -0.37552,-0.24655 l -3.37491,-12.317229 c -0.0632,-0.230751 -0.24342,-0.411163 -0.47417,-0.47528 l -7.02301,-1.946131 c -0.37828,-1.281253 -0.30847,-2.652529 0.19749,-3.888771 2.34682,0.07128 4.53491,-1.178004 5.66203,-3.233079 0.0173,-0.03142 0.0402,-0.05934 0.068,-0.08194 l 8.94269,-7.361419 c 0.38948,-0.320773 0.96562,-0.265474 1.28695,0.123091 0.0509,0.06173 0.0935,0.129705 0.12676,0.202458 l 12.83954,28.1308 c 0.079,0.1705 0.004,0.37185 -0.16902,0.44956 -0.16167,0.0742 -0.35458,0.01 -0.43909,-0.14789 L 180.14799,77.38573 c -0.12915,-0.239569 -0.42843,-0.329223 -0.66855,-0.200253 -0.0257,0.01378 -0.0502,0.02995 -0.0731,0.04813 l -5.9082,4.685559 2.79968,-0.968197 c 0.62997,-0.21789 1.32223,0.0812 1.59413,0.688761 l 7.33037,16.385124 c 0.0766,0.171226 -3.7e-4,0.37203 -0.17214,0.448457 -0.15892,0.07092 -0.34595,0.01047 -0.43303,-0.139993 l -8.25209,-14.221104 c -0.15469,-0.266759 -0.47013,-0.396097 -0.76831,-0.31471 l -5.73257,1.563078 3.16253,1.084307 c 0.43578,0.149363 0.75086,0.530396 0.81498,0.986018 z"
       fill="#00a6d6"
       fill-rule="evenodd"
       id="path18"
       style="stroke-width:0.183719" />
    <path
       d="m 161.69144,72.873051 h -3.59023 c -1.21291,0.946702 -1.44513,2.719035 -0.51845,3.958217 0.36211,0.484282 0.86752,0.835735 1.44127,1.002184 h 3.13516 c -1.00163,-1.453213 -1.17929,-3.338533 -0.46775,-4.960401 z"
       fill="#004459"
       fill-rule="evenodd"
       id="path19"
       style="stroke-width:0.183719" />
    <path
       d="m 160.54816,67.362229 h -4.44415 c -1.08229,1.189945 -0.96765,3.00784 0.25647,4.06018 0.49512,0.425676 1.12252,0.677922 1.78207,0.716503 h 3.46567 c -1.18241,-1.305321 -1.58366,-3.113479 -1.06006,-4.776683 z"
       fill="#004459"
       fill-rule="evenodd"
       id="path20"
       style="stroke-width:0.183719" />
    <path
       d="m 160.50609,66.627722 h -4.70503 c -1.38432,-0.690782 -2.13922,-2.221341 -1.84637,-3.742898 0.0955,-0.495122 0.28954,-0.965993 0.57063,-1.384504 1.35768,-0.877991 2.89044,-1.448069 4.491,-1.670185 -0.19401,2.364274 0.32499,4.732407 1.48977,6.797587 z"
       fill="#004459"
       fill-rule="evenodd"
       id="path21"
       style="stroke-width:0.183719" />
    <path
       d="m 162.48768,78.384424 c -0.22506,1.331593 0.19676,2.689824 1.14126,3.674372 -2.21179,-0.08102 -4.38481,-0.592676 -6.39194,-1.504655 -0.44588,-0.733956 -0.19878,-1.682311 0.55208,-2.118275 0.0314,-0.01819 0.0634,-0.03527 0.0959,-0.05144 z"
       fill="#004459"
       fill-rule="evenodd"
       id="path22"
       style="stroke-width:0.183719" />
    <path
       d="m 161.50681,67.362229 c -0.91437,1.640607 -0.39757,3.682087 1.19802,4.732039 1.52193,0.205581 3.05341,-0.305708 4.11732,-1.374399 0.55465,-1.127664 0.31857,-2.469361 -0.59047,-3.35764 z"
       fill="#004459"
       fill-rule="evenodd"
       id="path23"
       style="stroke-width:0.183719" />
    <path
       d="m 166.45086,61.42371 c -2.02458,-1.315425 -4.4166,-1.928127 -6.81504,-1.745878 -0.22561,2.429862 0.33253,4.868359 1.59026,6.94989 h 4.65672 c 1.15945,-1.480588 1.38009,-3.502595 0.56806,-5.204012 z"
       fill="#004459"
       fill-rule="evenodd"
       id="path24"
       style="stroke-width:0.183719" />
    <path
       d="m 163.48251,78.313693 c 1.33215,0.110047 2.6665,-0.185556 3.82686,-0.848045 0.75233,0.594146 1.26729,1.436495 1.45248,2.376032 0.0349,0.176921 -0.0173,0.359905 -0.14018,0.491815 -1.04756,1.12546 -2.52521,1.752491 -4.06385,1.724199 -1.16331,-0.862743 -1.60405,-2.396609 -1.07531,-3.744001 z"
       fill="#004459"
       fill-rule="evenodd"
       id="path25"
       style="stroke-width:0.183719" />
    <path
       d="m 162.81874,72.724055 c 1.03966,0.267862 2.14161,0.12401 3.07894,-0.401976 0.78944,0.559974 1.34059,1.398466 1.54397,2.348658 0.23075,1.076959 -0.44974,2.138484 -1.5199,2.370521 -0.0244,0.0051 -0.0489,0.0099 -0.0731,0.01433 l -2.31229,0.410611 c -1.45174,-0.796604 -1.98691,-2.627176 -1.19527,-4.088473 0.12934,-0.238467 0.28991,-0.458378 0.47767,-0.653671 z"
       fill="#004459"
       fill-rule="evenodd"
       id="path26"
       style="stroke-width:0.183719" />
    <path
       d="m 142.30987,41.934109 -1.32131,-3.591882 c -0.63107,-1.714829 -0.83426,-3.556791 -0.59267,-5.367338 l 0.13099,-0.97922 c 0.0773,-0.579081 0.59194,-0.999061 1.1769,-0.96048 0.58496,0.0384 1.03966,0.522311 1.03985,1.106537 3.6e-4,2.277559 1.78776,4.157367 4.07028,4.281193 2.28234,0.12401 4.26393,-1.551319 4.51287,-3.815283 0.0687,-0.625378 0.8146,-0.91547 1.29043,-0.501919 l 2.01723,1.75341 c 0.91547,0.795685 2.32404,0.610129 3.0005,-0.395363 1.67643,-2.492326 1.54489,-5.778132 -0.32555,-8.129363 -0.27558,-0.346125 -0.0281,-0.856128 0.4152,-0.856128 h 3.47485 c 2.04736,0 3.70708,-1.653651 3.70708,-3.693662 v -6.452692 c 0,-0.402932 0.50853,-0.5818 0.76243,-0.268358 1.83755,2.267565 3.22371,4.863839 4.08406,7.649196 1.34905,4.366991 -1.92316,8.790015 -6.50896,8.798282 -0.41815,7.35e-4 -0.72036,0.398486 -0.60793,0.799544 l 0.61252,2.184781 c 0.67462,2.406346 0.24159,4.987224 -1.18241,7.044137 l -0.38452,0.555565 c -0.84217,1.216585 -2.44493,1.645568 -3.78553,1.013576 l -3.04642,-1.436496 c -0.57632,-0.27172 -1.26251,-0.148444 -1.70729,0.306994 -1.96947,2.01576 -4.6558,3.178699 -7.47864,3.237489 -1.49253,0.03105 -2.8401,-0.886075 -3.35396,-2.28252 z"
       fill="#005e79"
       fill-rule="evenodd"
       id="path27"
       style="stroke-width:0.183719" />
    <path
       d="m 141.58308,39.710563 c 0.63181,1.722545 2.2884,2.853701 4.12338,2.815304 2.36942,-0.04942 4.62456,-1.028824 6.27766,-2.726384 0.9478,-0.973341 2.40965,-1.236793 3.638,-0.655875 l 3.0365,1.436495 c 0.58679,0.277415 1.28841,0.0891 1.65714,-0.44515 l 0.38323,-0.555565 c 1.1341,-1.64373 1.47912,-3.705971 0.94175,-5.629137 l -0.6105,-2.184781 c -0.413,-1.478016 0.69721,-2.94262 2.23236,-2.94556 3.43407,-0.0061 5.88451,-3.32898 4.87442,-6.609643 -0.70437,-2.287664 -1.79107,-4.439375 -3.21415,-6.364544 v -1.513804 c 0,-0.402932 0.50688,-0.5818 0.76023,-0.268358 1.8313,2.267675 3.21323,4.863839 4.07083,7.649196 1.34464,4.366991 -1.9171,8.790015 -6.4882,8.798282 -0.41668,7.35e-4 -0.71798,0.398486 -0.60591,0.799544 l 0.6105,2.184781 c 0.67241,2.406346 0.24067,4.987224 -1.17855,7.044137 l -0.38324,0.555565 c -0.83941,1.216585 -2.43721,1.645568 -3.7734,1.013576 l -3.03668,-1.436496 c -0.57467,-0.27172 -1.25847,-0.148444 -1.70215,0.306994 -1.96304,2.01576 -4.64074,3.178699 -7.45457,3.237489 -1.48775,0.03105 -2.83092,-0.886075 -3.34313,-2.28252 z"
       fill="#004459"
       fill-rule="evenodd"
       id="path28"
       style="stroke-width:0.183719" />
  </g>
</svg>